<?xml version="1.0" standalone="no"?>
<!DOCTYPE svg PUBLIC "-//W3C//DTD SVG 20010904//EN"
 "http://www.w3.org/TR/2001/REC-SVG-20010904/DTD/svg10.dtd">
<svg version="1.0" xmlns="http://www.w3.org/2000/svg"
 width="300.000000pt" height="300.000000pt" viewBox="0 0 300.000000 300.000000"
 preserveAspectRatio="xMidYMid meet">
<metadata>
Created by potrace 1.10, written by Peter Selinger 2001-2011
</metadata>
<g transform="translate(0.000000,300.000000) scale(0.100000,-0.100000)"
fill="#000000" stroke="none">
<path d="M406 2992 c-4 -7 -2 -31 4 -52 2 -7 18 33 19 48 1 13 -15 17 -23 4z"/>
<path d="M466 2955 c-45 -40 -49 -48 -52 -94 -2 -40 1 -51 12 -51 9 0 12 5 9
10 -19 30 46 124 90 132 38 6 49 48 13 48 -13 -1 -45 -21 -72 -45z"/>
<path d="M614 2965 c-21 -20 -44 -33 -50 -31 -7 3 -14 -8 -18 -24 -3 -16 -25
-49 -48 -72 -24 -24 -43 -47 -43 -51 0 -11 -77 -87 -87 -87 -5 0 -8 -6 -8 -14
0 -15 -82 -86 -99 -86 -6 0 -11 -5 -11 -11 0 -5 -5 -7 -12 -3 -7 5 -8 3 -3 -6
4 -7 8 -37 8 -66 1 -67 21 -72 25 -7 1 26 9 58 17 70 9 13 16 26 17 30 0 5 9
14 20 22 15 10 23 10 31 2 17 -17 27 -13 27 13 0 24 69 96 92 96 6 0 8 3 5 6
-7 7 25 39 46 48 8 3 7 8 -3 15 -8 6 -10 11 -5 11 6 0 25 22 43 49 19 27 50
61 70 75 20 14 32 26 27 26 -6 0 -4 4 4 9 8 5 9 11 3 15 -5 3 -27 -10 -48 -29z"/>
<path d="M886 2960 c-20 -22 -41 -40 -47 -40 -5 0 -8 -4 -5 -8 3 -5 -27 -37
-65 -73 -99 -91 -148 -139 -142 -139 3 0 -5 -9 -18 -20 -13 -10 -20 -19 -15
-20 5 0 3 -7 -4 -15 -7 -8 -9 -15 -5 -15 4 0 90 83 192 185 129 129 179 185
165 185 -11 0 -36 -18 -56 -40z"/>
<path d="M838 2800 c-109 -110 -198 -205 -198 -210 0 -21 21 -7 81 55 35 36
86 88 112 115 27 28 54 50 60 50 7 0 4 -5 -5 -11 -10 -5 -15 -16 -12 -24 4 -8
1 -15 -7 -15 -7 0 -9 -3 -6 -7 4 -3 1 -13 -5 -22 -7 -9 3 -2 21 14 18 17 51
58 74 93 23 34 43 58 45 53 2 -5 -2 -20 -8 -31 -6 -12 -9 -24 -6 -27 3 -3 10
7 16 23 5 16 17 41 26 57 8 15 12 27 8 27 -14 0 23 34 51 46 l30 13 -40 1
c-39 0 -45 -5 -237 -200z"/>
<path d="M1200 2974 c-6 -14 -10 -29 -10 -33 0 -4 -18 -27 -41 -50 -22 -24
-38 -46 -35 -49 9 -8 -15 -33 -25 -26 -5 3 -9 -4 -9 -15 0 -12 -4 -21 -9 -21
-5 0 -7 -8 -4 -19 2 -10 -2 -25 -10 -32 -8 -8 -18 -25 -21 -37 -4 -12 -11 -20
-15 -17 -14 8 -92 -9 -89 -20 2 -5 9 -9 15 -9 7 1 10 -2 7 -7 -3 -5 -16 -7
-30 -5 -25 5 -29 -8 -25 -70 2 -20 -37 -79 -46 -71 -2 3 2 20 10 38 15 36 12
59 -5 59 -6 0 -9 -3 -5 -6 3 -3 -3 -25 -13 -49 -10 -24 -16 -45 -14 -48 5 -4
-32 -66 -56 -95 -16 -18 -42 -82 -38 -93 2 -5 21 27 42 71 40 81 69 103 37 27
-19 -44 -38 -199 -23 -182 5 6 17 32 25 59 15 45 15 47 0 35 -15 -12 -15 -12
-6 5 6 10 8 28 5 39 -3 12 -1 18 5 14 11 -7 33 33 33 59 0 9 18 36 40 61 22
25 38 49 35 52 -2 4 2 20 10 34 8 15 13 31 12 35 -2 8 62 41 83 42 22 1 53 27
46 39 -4 5 -2 12 4 16 5 3 10 13 10 22 0 26 42 103 57 103 7 0 13 7 13 15 0
22 61 86 97 101 41 18 67 18 56 2 -4 -7 -8 -15 -8 -18 -3 -17 -17 -50 -23 -50
-4 0 -18 -10 -32 -21 l-25 -21 27 16 c32 19 52 21 42 4 -4 -7 -3 -8 5 -4 6 4
9 12 6 17 -4 5 -2 9 3 9 5 0 12 18 16 40 5 35 12 42 36 42 3 1 18 -2 33 -6 19
-4 26 -3 22 4 -3 5 -18 10 -32 10 -18 0 -24 4 -19 15 4 11 -2 15 -27 15 -21 0
-28 -3 -19 -9 11 -7 10 -10 -3 -15 -24 -9 -37 -7 -30 4 9 15 -11 12 -24 -4
-14 -16 -51 -28 -51 -16 0 5 5 12 10 15 13 8 13 25 0 25 -6 0 -15 -12 -20 -26z"/>
<path d="M1445 2971 c-16 -32 -9 -46 15 -30 8 5 11 9 5 9 -5 0 -1 7 9 15 14
11 16 15 5 15 -12 0 -12 2 1 10 13 8 13 10 -2 10 -10 0 -24 -13 -33 -29z"/>
<path d="M1559 2998 c-6 -20 -6 -78 0 -78 8 0 23 25 25 42 1 3 4 10 9 14 13
13 7 24 -13 24 -11 0 -20 -1 -21 -2z"/>
<path d="M1692 2973 c-11 -16 -23 -38 -27 -51 -6 -22 -5 -22 14 -10 12 7 21
18 21 25 0 7 6 13 14 13 9 0 13 10 12 25 -1 32 -10 32 -34 -2z"/>
<path d="M1773 2978 c-29 -63 -33 -78 -19 -78 7 0 25 23 40 50 25 46 26 50 8
50 -10 0 -23 -10 -29 -22z"/>
<path d="M1883 2988 c-16 -19 -53 -96 -53 -108 0 -6 7 -6 19 2 11 7 18 15 15
19 -2 4 -1 9 3 11 17 7 45 70 36 79 -6 6 -14 5 -20 -3z"/>
<path d="M2065 2990 c3 -5 1 -10 -5 -10 -6 0 -8 -4 -5 -10 3 -5 1 -10 -5 -10
-6 0 -8 -4 -5 -10 3 -5 1 -10 -4 -10 -6 0 -11 -7 -11 -15 0 -8 -4 -15 -8 -15
-10 0 -42 -65 -42 -86 0 -32 27 2 101 129 l28 47 -25 0 c-14 0 -22 -4 -19 -10z"/>
<path d="M2136 2936 c-18 -34 -45 -82 -59 -108 -37 -67 -15 -69 28 -3 19 31
44 59 54 63 17 6 91 93 91 106 0 3 -18 5 -40 4 -38 -1 -42 -4 -74 -62z"/>
<path d="M2278 2935 c-34 -36 -67 -65 -71 -65 -5 0 -31 -23 -58 -52 -35 -37
-45 -54 -36 -60 19 -12 20 -12 155 55 70 35 159 74 197 87 93 30 99 33 103 59
2 11 6 21 10 22 74 9 91 19 31 19 -45 -1 -87 -17 -88 -35 0 -5 -9 -11 -21 -13
-11 -2 -20 -7 -20 -11 0 -4 -14 -6 -30 -3 -22 3 -30 1 -28 -9 2 -8 -4 -13 -14
-13 -10 1 -18 -2 -18 -7 0 -5 -7 -9 -16 -9 -8 0 -12 5 -8 11 11 18 -28 -6 -51
-31 -27 -30 -75 -54 -86 -43 -14 14 47 80 86 94 18 7 36 20 39 28 3 9 9 22 12
29 15 33 -31 5 -88 -53z"/>
<path d="M2408 2969 c-36 -18 -50 -39 -28 -39 6 0 10 4 10 8 0 4 10 8 21 9 12
1 29 9 38 17 10 9 21 13 26 9 4 -5 5 -2 1 5 -10 16 -24 15 -68 -9z"/>
<path d="M2779 2979 c-31 -4 -72 -15 -90 -23 l-34 -15 40 5 c22 3 67 9 100 15
74 11 128 12 121 1 -2 -4 4 -8 14 -8 10 0 16 4 14 8 -3 4 1 8 8 9 7 0 4 4 -7
9 -25 11 -92 10 -166 -1z"/>
<path d="M1410 2920 c0 -5 -9 -10 -20 -10 -11 0 -20 -4 -20 -9 0 -4 21 -8 48
-7 26 1 58 -3 72 -8 22 -8 23 -7 11 8 -7 9 -22 16 -32 16 -10 0 -21 5 -24 10
-3 6 -13 10 -21 10 -8 0 -14 -4 -14 -10z"/>
<path d="M1062 2903 c-10 -4 -9 -8 5 -18 17 -13 17 -15 2 -42 -21 -35 -80 -68
-91 -50 -5 8 -8 5 -8 -9 0 -20 -79 -104 -97 -104 -5 0 -22 -14 -40 -30 -18
-17 -37 -30 -43 -30 -6 0 -8 -4 -5 -10 3 -5 2 -10 -3 -10 -18 0 -182 -154
-182 -171 0 -6 -7 -8 -16 -5 -8 3 -12 2 -9 -4 3 -6 -1 -10 -10 -10 -9 0 -13
-4 -10 -10 3 -5 1 -10 -5 -10 -7 0 -21 -11 -32 -25 -20 -26 -43 -34 -35 -12 2
6 10 11 17 9 8 -2 10 3 6 13 -3 9 5 38 19 66 25 49 24 65 -2 32 -7 -10 -38
-58 -69 -107 -31 -49 -67 -101 -80 -115 -15 -16 -20 -29 -14 -35 13 -13 13
-39 0 -31 -5 3 -10 0 -10 -7 0 -7 -20 -34 -45 -59 -24 -26 -41 -49 -38 -53 4
-3 -1 -6 -10 -6 -10 0 -14 -5 -11 -15 4 -8 1 -15 -7 -15 -7 0 -9 -3 -6 -6 4
-4 -3 -15 -15 -25 -11 -11 -17 -19 -12 -19 5 0 4 -4 -2 -8 -13 -8 -59 -94 -56
-104 1 -5 -3 -8 -8 -8 -5 0 -9 -3 -9 -7 1 -5 1 -17 0 -28 -1 -17 -3 -18 -11
-5 -8 13 -10 13 -10 -2 0 -9 6 -19 13 -21 7 -3 4 -6 -6 -6 -10 -1 -16 -5 -13
-10 3 -5 -1 -14 -8 -21 -8 -6 -18 -25 -21 -41 -4 -16 -14 -34 -23 -40 -15 -10
-15 -10 -1 -5 13 3 18 -3 21 -30 2 -18 0 -41 -5 -50 -5 -8 -6 -18 -3 -22 4 -3
9 4 13 16 3 12 10 22 16 22 7 0 7 4 -1 12 -13 13 -17 74 -4 80 10 4 62 85 62
97 0 5 7 11 15 15 8 3 15 10 15 16 0 6 -8 4 -17 -6 -11 -11 -18 -13 -21 -5 -2
6 28 56 67 110 39 54 71 102 71 107 0 5 14 25 32 44 17 19 82 95 146 168 63
73 125 138 138 144 13 6 26 19 29 28 8 26 332 307 342 297 5 -6 96 82 117 114
11 18 15 36 10 53 -6 27 -9 28 -32 19z"/>
<path d="M1525 2883 c22 -20 84 -33 135 -28 43 3 74 -3 154 -30 162 -54 246
-102 326 -187 39 -40 70 -76 70 -81 0 -4 6 -6 13 -5 7 2 11 -5 9 -16 -4 -21
17 -76 28 -76 11 0 30 -57 30 -87 0 -13 9 -41 19 -61 16 -32 18 -48 11 -111
-7 -61 -13 -79 -39 -109 -45 -52 -59 -88 -70 -178 -6 -43 -20 -103 -31 -132
-27 -69 -26 -98 3 -107 19 -6 20 -8 4 -12 -11 -3 -16 -10 -13 -20 3 -8 6 -18
6 -23 0 -4 9 -6 20 -3 24 6 27 45 5 63 -20 17 -19 36 9 121 13 41 30 107 36
147 7 43 19 80 29 90 60 58 90 127 71 163 -9 16 -7 23 11 38 19 15 20 20 9 42
-7 13 -21 34 -32 45 -12 14 -16 24 -9 28 15 10 -25 97 -57 124 -18 16 -23 26
-15 29 10 4 10 10 -2 26 -8 12 -15 31 -15 42 0 14 -16 33 -45 53 -26 18 -44
36 -41 41 13 21 -130 108 -246 150 -32 11 -66 25 -75 29 -10 5 -34 15 -53 21
-42 15 -269 27 -255 14z"/>
<path d="M2805 2883 c-35 -4 -162 -31 -220 -46 -22 -6 -47 -12 -55 -13 -76
-15 -360 -122 -360 -136 0 -13 26 -9 82 13 29 12 58 22 63 24 6 1 17 5 25 8
31 14 216 69 244 73 16 2 35 9 41 14 9 8 15 7 18 -2 4 -10 7 -10 14 -1 5 7 18
14 28 16 11 2 31 7 45 11 14 3 43 8 65 10 22 3 41 5 43 6 2 2 15 6 30 9 4 1 0
6 -8 11 -8 5 -17 9 -20 8 -3 0 -18 -3 -35 -5z"/>
<path d="M2928 2854 c-27 -13 -48 -29 -48 -34 0 -5 -9 -7 -19 -5 -11 2 -25 -3
-31 -11 -7 -7 -16 -11 -21 -8 -5 3 -9 0 -9 -5 0 -6 -7 -11 -15 -11 -8 0 -15
-4 -15 -8 0 -5 -19 -15 -42 -22 -24 -7 -46 -17 -49 -22 -4 -6 -20 -11 -37 -11
-17 -1 -28 -5 -26 -9 3 -5 0 -9 -5 -9 -6 -1 -15 -2 -20 -3 -6 0 -16 -7 -22
-13 -7 -7 -19 -13 -26 -13 -7 0 -30 -9 -50 -20 -20 -10 -40 -17 -45 -14 -4 3
-8 0 -8 -6 0 -6 -4 -9 -9 -6 -5 3 -14 -1 -21 -9 -7 -8 -16 -12 -21 -9 -5 3 -8
0 -7 -8 2 -7 -5 -12 -14 -12 -10 1 -14 -4 -11 -12 6 -16 19 -18 27 -5 4 5 50
26 104 47 53 21 102 41 107 45 6 4 63 30 127 58 177 77 282 136 273 151 -8 14
-13 12 -67 -16z"/>
<path d="M1362 2860 c-12 -5 -25 -16 -28 -25 -5 -12 -9 -13 -20 -4 -8 7 -17 9
-21 5 -3 -3 0 -6 7 -6 7 0 1 -11 -14 -25 -15 -14 -33 -25 -41 -25 -15 0 -85
-67 -85 -82 0 -5 15 2 33 16 41 32 57 34 31 4 -18 -20 -17 -20 14 2 36 27 40
32 15 24 -10 -4 -5 5 12 20 17 14 33 26 38 27 14 3 22 6 50 17 16 7 35 12 43
12 20 0 18 18 -3 23 -10 2 1 8 27 14 l45 11 -40 0 c-22 1 -50 -3 -63 -8z"/>
<path d="M1505 2780 c-42 -11 -1 -11 50 -1 34 7 35 9 10 9 -16 0 -43 -4 -60
-8z"/>
<path d="M551 2765 c-1 -5 -18 -29 -39 -52 -20 -22 -48 -59 -61 -82 -14 -22
-28 -38 -33 -35 -4 3 -8 0 -8 -7 0 -7 -8 -5 -22 7 -20 18 -21 18 -15 0 9 -24
-26 -86 -64 -111 -16 -11 -29 -23 -29 -27 0 -5 -6 -8 -13 -8 -7 0 -12 -13 -12
-30 -1 -29 1 -29 58 35 32 36 65 65 73 65 9 0 12 4 9 10 -3 5 6 20 21 32 46
39 74 71 101 114 31 48 44 76 39 87 -2 7 -5 8 -5 2z"/>
<path d="M1430 2763 c-8 -3 -36 -16 -62 -28 -25 -13 -48 -22 -50 -20 -1 1 -12
-6 -22 -16 -19 -18 -18 -18 2 -14 25 5 82 34 99 51 7 7 25 11 41 8 21 -4 24
-2 12 7 -12 9 -11 10 8 6 12 -3 20 -1 16 4 -6 10 -21 10 -44 2z"/>
<path d="M1415 2699 c-57 -28 -104 -60 -60 -41 69 29 148 71 135 71 -8 0 -42
-13 -75 -30z"/>
<path d="M2517 2724 c-6 -7 -214 -94 -232 -97 -11 -2 -35 -23 -35 -30 0 -10
39 -14 43 -4 1 5 13 12 25 14 13 1 34 11 49 20 29 19 56 26 47 12 -3 -5 -10
-6 -16 -3 -7 4 -8 2 -4 -4 5 -8 17 -5 39 11 18 12 35 27 39 32 4 6 12 11 18
11 5 1 15 2 20 3 6 0 10 7 10 15 0 8 6 17 13 19 6 3 7 6 1 6 -6 1 -13 -2 -17
-5z"/>
<path d="M1598 2704 c-42 -13 -77 -36 -46 -30 68 13 126 31 122 38 -7 11 -20
9 -76 -8z"/>
<path d="M1622 2653 c-18 -8 -30 -18 -28 -20 7 -7 75 17 81 28 9 14 -16 10
-53 -8z"/>
<path d="M2894 2636 c-17 -6 -37 -16 -45 -22 -15 -13 -51 -25 -60 -21 -3 1
-13 -3 -21 -10 -27 -23 -158 -61 -198 -59 -22 2 -37 0 -34 -5 2 -4 -4 -7 -13
-7 -34 2 -137 -13 -155 -23 -10 -6 -16 -14 -13 -20 4 -5 -1 -9 -9 -9 -9 0 -16
-5 -16 -11 0 -16 88 -4 195 26 28 8 66 17 85 19 19 3 62 15 95 26 33 12 68 22
77 23 9 0 15 4 12 8 -3 6 17 15 55 24 7 2 22 13 32 24 11 12 27 21 35 21 8 0
13 4 9 9 -3 5 3 12 12 14 12 3 12 5 3 5 -8 0 -29 -5 -46 -12z"/>
<path d="M445 2501 c-38 -20 -137 -121 -122 -122 7 -1 18 -1 26 0 8 2 6 -5 -6
-18 -20 -22 -46 -91 -34 -91 4 0 31 39 61 86 30 48 68 102 84 121 34 40 32 47
-9 24z"/>
<path d="M1338 2501 c-21 -20 -24 -36 -6 -24 18 11 52 10 61 -2 5 -6 7 -4 4 5
-2 8 -11 14 -20 12 -11 -2 -15 2 -11 13 8 20 -7 18 -28 -4z"/>
<path d="M2990 2496 c0 -10 -7 -13 -20 -11 -11 2 -18 0 -15 -6 4 -5 1 -9 -4
-9 -6 0 -11 5 -11 12 0 6 -8 1 -19 -10 -10 -12 -23 -22 -30 -22 -6 0 -11 -3
-11 -7 0 -5 20 -8 44 -8 31 0 42 3 35 11 -6 7 0 15 16 22 21 10 36 42 20 42
-3 0 -5 -6 -5 -14z"/>
<path d="M1102 2459 c-31 -32 -46 -65 -56 -124 -7 -45 -18 -79 -28 -92 -5 -7
-5 -14 1 -17 12 -8 18 1 26 45 l7 36 72 -5 c41 -2 76 0 79 5 3 5 -7 8 -24 5
-16 -2 -49 -1 -73 2 -44 7 -44 7 -36 37 5 17 23 53 41 80 38 59 34 72 -9 28z"/>
<path d="M1637 2458 c-7 -4 5 -8 28 -9 32 0 36 -2 20 -9 -24 -10 -24 -11 44
-17 39 -3 51 -2 46 7 -5 7 -19 10 -37 6 -26 -5 -29 -4 -18 9 10 12 10 15 -1
16 -8 0 -27 2 -42 3 -15 1 -33 -2 -40 -6z"/>
<path d="M1850 2434 c0 -9 34 -34 47 -34 14 0 14 3 -3 18 -16 16 -44 26 -44
16z"/>
<path d="M216 2394 c-3 -9 -4 -20 0 -25 3 -5 0 -9 -6 -9 -7 0 -10 -6 -7 -14 3
-8 1 -17 -6 -20 -9 -3 -8 -5 1 -5 7 -1 18 12 23 29 6 16 15 27 21 24 6 -4 5 3
-1 15 -14 25 -17 26 -25 5z"/>
<path d="M1910 2383 c8 -4 20 -11 25 -17 6 -6 24 -22 40 -36 21 -18 19 -13
-10 18 -21 23 -46 42 -55 41 -13 0 -13 -1 0 -6z"/>
<path d="M2575 2320 c-3 -5 0 -10 7 -10 10 0 9 -3 -1 -9 -9 -6 -22 -6 -32 0
-12 6 -22 4 -33 -6 -8 -8 -24 -15 -36 -15 -12 0 -19 -4 -16 -9 3 -5 -5 -12
-19 -15 -21 -5 -83 -56 -68 -56 24 0 91 28 106 44 9 10 17 15 17 11 0 -4 8 -1
18 7 9 8 29 18 44 22 31 7 59 46 34 46 -8 0 -18 -4 -21 -10z"/>
<path d="M718 2240 c-38 -44 -34 -37 -118 -215 -34 -71 -73 -142 -87 -158 -15
-15 -28 -40 -29 -55 -2 -30 -25 -81 -56 -122 -10 -14 -21 -38 -24 -54 -8 -45
-31 -75 -148 -191 -61 -60 -119 -120 -129 -133 -32 -42 -13 -43 31 -2 24 22
48 40 53 40 6 0 8 4 4 9 -3 6 10 21 30 34 19 13 32 27 28 30 -3 4 -1 7 5 7 13
0 63 49 100 99 15 20 31 39 37 43 5 4 6 8 1 8 -4 0 -1 11 8 25 9 14 14 30 11
35 -3 5 -1 11 5 15 6 4 8 11 5 16 -4 5 2 9 11 9 10 0 14 3 11 6 -3 4 2 18 13
31 10 13 16 31 13 39 -3 8 0 14 6 14 6 0 11 9 11 20 0 11 4 20 9 20 5 0 12 11
15 25 4 14 15 34 26 45 11 11 20 23 20 28 1 25 13 43 27 37 13 -4 14 -3 3 10
-8 10 -9 15 -1 15 6 0 11 9 11 20 0 11 4 20 9 20 5 0 12 12 16 28 10 40 49
122 58 122 5 0 6 4 3 9 -4 5 5 22 18 38 22 27 43 73 32 73 -2 0 -20 -18 -38
-40z"/>
<path d="M157 2190 c-9 -11 -19 -32 -22 -47 -6 -27 -6 -27 10 -8 42 51 54 103
12 55z"/>
<path d="M771 2179 c-1 -34 18 -89 31 -89 7 0 6 5 -1 14 -6 8 -16 33 -20 57
-6 29 -9 35 -10 18z"/>
<path d="M1017 2156 c-9 -13 -27 -70 -41 -126 -23 -93 -36 -119 -58 -120 -7 0
-20 33 -24 65 -5 43 -32 143 -44 164 -21 40 -21 15 0 -65 11 -43 20 -95 20
-116 0 -21 4 -38 10 -38 22 0 36 -55 29 -115 -7 -65 -2 -115 12 -115 5 0 9 15
9 33 0 33 84 347 102 381 12 22 17 76 7 76 -4 0 -14 -11 -22 -24z"/>
<path d="M235 2162 c-6 -4 -21 -25 -33 -47 l-23 -40 26 28 c14 16 29 25 35 22
6 -4 7 1 3 10 -3 10 0 21 8 26 8 5 10 9 4 9 -5 0 -15 -4 -20 -8z"/>
<path d="M2773 2103 c3 -5 -7 -8 -21 -9 -83 -3 -166 -33 -245 -90 -66 -48 -92
-57 -108 -38 -11 13 -15 12 -27 -13 -20 -39 -73 -93 -91 -93 -12 0 -13 -2 -4
-8 10 -6 10 -15 1 -40 -10 -25 -10 -34 0 -44 9 -9 12 -8 12 5 0 30 7 43 44 75
10 9 26 25 35 35 25 28 64 45 86 37 19 -7 47 9 39 22 -2 3 14 19 36 35 23 15
50 36 62 46 12 9 26 17 32 18 6 0 20 3 31 5 11 3 39 6 61 7 23 1 49 8 58 16
18 15 22 41 5 41 -5 0 -8 -3 -6 -7z"/>
<path d="M1105 2012 c-82 -4 -113 -32 -58 -53 20 -7 28 -6 35 3 4 7 8 9 8 4 0
-4 12 -1 26 9 19 12 29 14 39 5 8 -7 19 -9 24 -5 7 3 8 0 5 -9 -6 -16 5 -20
86 -31 25 -3 63 -9 86 -13 35 -8 40 -6 41 11 1 11 -1 16 -4 13 -4 -4 -20 7
-37 23 -33 31 -63 41 -84 27 -8 -5 -19 -3 -25 3 -9 9 -7 10 8 5 11 -4 17 -3
12 1 -8 9 -71 12 -162 7z"/>
<path d="M2784 1953 c1 -9 -30 -26 -83 -48 -79 -30 -111 -35 -111 -15 0 5 -9
6 -20 3 -11 -3 -17 -9 -14 -14 3 -5 0 -9 -6 -9 -7 0 -9 -7 -6 -16 3 -8 2 -12
-3 -9 -5 3 -12 1 -15 -4 -4 -5 -21 -8 -40 -5 -23 3 -36 -1 -39 -11 -4 -8 -24
-23 -46 -34 -53 -28 -57 -38 -17 -43 19 -2 34 -1 34 2 -2 21 7 32 42 50 23 12
40 16 40 9 0 -6 7 -4 15 5 8 8 24 18 35 21 11 3 20 11 20 16 0 6 12 8 29 4 17
-4 32 -2 36 5 5 8 10 8 20 0 9 -8 14 -7 18 3 2 7 28 19 56 26 34 8 49 17 44
24 -4 7 2 5 12 -3 10 -8 16 -10 12 -4 -4 7 2 14 13 17 11 3 19 2 18 -2 -3 -24
4 -39 20 -37 10 0 17 -6 16 -15 -1 -11 7 -14 33 -12 18 1 31 -2 28 -6 -3 -5 4
-7 15 -4 11 3 20 10 20 15 0 5 5 6 10 3 6 -4 7 -12 3 -18 -4 -7 0 -6 10 2 9 7
17 19 17 26 0 13 -23 13 -80 0 -26 -6 -35 -3 -48 17 -9 12 -16 27 -14 31 1 5
-2 6 -8 2 -5 -3 -10 -1 -10 4 0 6 -10 11 -22 11 -17 0 -19 3 -10 9 11 6 9 9
-6 13 -13 4 -19 1 -18 -9z"/>
<path d="M1748 1888 c-10 -12 -16 -24 -13 -26 6 -6 45 28 45 40 0 14 -14 8
-32 -14z"/>
<path d="M1860 1902 c-43 -3 -113 -42 -100 -55 16 -16 176 -27 197 -14 16 10
75 12 101 3 40 -13 23 10 -25 36 -50 27 -98 35 -173 30z"/>
<path d="M813 1888 c-8 -15 -5 -66 6 -86 5 -9 8 -2 9 17 1 39 8 51 32 51 13 0
17 5 14 15 -7 18 -50 20 -61 3z"/>
<path d="M1101 1869 c-18 -11 -31 -23 -27 -26 3 -3 14 2 25 11 10 9 32 21 47
26 21 6 23 9 9 9 -11 1 -35 -8 -54 -20z"/>
<path d="M1281 1881 c14 -5 36 -14 50 -22 24 -13 30 -15 49 -18 6 0 10 -8 10
-16 0 -8 9 -15 20 -15 11 0 20 -4 20 -10 0 -5 7 -7 15 -4 8 4 13 10 10 14 -9
15 -155 80 -178 79 -20 -1 -20 -1 4 -8z"/>
<path d="M767 1838 c1 -18 7 -51 12 -73 13 -53 10 -74 -14 -101 -34 -37 -45
-53 -46 -61 0 -5 -9 -18 -21 -30 -11 -12 -17 -26 -13 -33 3 -6 3 -9 -2 -8 -12
3 -96 -52 -111 -74 -7 -10 -18 -15 -24 -12 -7 5 -9 2 -5 -8 4 -11 -1 -18 -14
-21 -14 -4 -19 -14 -19 -36 0 -17 -4 -31 -10 -31 -5 0 -10 -4 -10 -9 0 -25 41
9 93 76 44 56 63 73 79 71 17 -2 29 10 57 58 20 34 51 80 69 102 38 48 38 55
12 122 -11 28 -20 62 -20 75 0 14 -3 25 -8 25 -4 0 -6 -15 -5 -32z"/>
<path d="M1140 1844 c-30 -8 -68 -18 -85 -23 -28 -7 -28 -8 -9 -15 12 -3 26
-6 30 -5 5 1 11 1 14 0 3 -2 19 -4 37 -7 25 -3 31 -1 27 11 -4 9 0 15 10 15 9
0 16 -6 16 -14 0 -8 8 -17 18 -20 46 -13 82 -17 82 -9 0 5 6 17 13 27 13 18
15 18 43 1 16 -10 35 -25 42 -34 7 -9 12 -10 12 -3 0 16 -40 52 -75 67 -49 21
-116 24 -175 9z"/>
<path d="M1682 1813 c-17 -8 -32 -20 -32 -25 0 -5 -7 -16 -15 -24 -19 -20 -19
-51 0 -70 13 -13 14 -12 9 15 -6 27 -4 31 15 31 12 0 33 7 47 16 13 9 39 20
57 24 30 7 29 8 -15 9 -45 1 -64 14 -35 24 6 2 10 7 7 10 -3 3 -20 -1 -38 -10z"/>
<path d="M1744 1756 c-37 -16 -51 -34 -32 -40 37 -12 78 -15 73 -6 -3 6 -21
10 -38 10 l-32 1 34 14 c43 19 48 19 56 -5 9 -28 72 -44 102 -25 29 19 33 19
33 -4 0 -14 8 -21 28 -24 l27 -4 -32 -14 c-18 -7 -33 -17 -33 -21 0 -14 -86
-1 -127 20 -52 27 -61 28 -38 2 10 -11 35 -25 56 -32 21 -6 37 -14 34 -17 -2
-4 10 -8 26 -9 34 -3 107 32 116 54 4 11 13 14 29 10 17 -5 24 -2 24 9 0 10
-10 15 -30 15 -16 0 -30 5 -30 10 0 6 5 10 10 10 20 0 9 20 -20 35 -35 18 -44
19 -34 3 5 -8 2 -9 -10 -5 -10 4 -21 7 -24 7 -4 0 -2 4 4 8 23 14 -140 12
-172 -2z"/>
<path d="M1130 1730 c-20 -5 -13 -9 37 -19 66 -14 128 -9 178 15 l30 14 -45
-6 c-74 -10 -112 -11 -144 -4 -17 3 -42 4 -56 0z"/>
<path d="M132 1682 c-23 -46 -24 -52 -14 -52 11 0 36 54 31 69 -2 6 -10 -2
-17 -17z"/>
<path d="M855 1682 c5 -36 45 -97 45 -70 0 9 -7 21 -15 28 -8 7 -20 27 -25 44
l-10 31 5 -33z"/>
<path d="M280 1690 c0 -5 -6 -10 -14 -10 -7 0 -28 -14 -46 -31 -17 -17 -48
-36 -67 -41 -32 -9 -34 -11 -19 -27 18 -20 21 -36 6 -26 -6 3 -10 1 -10 -5 0
-6 -6 -8 -12 -4 -10 5 -10 4 -1 -6 9 -10 10 -17 2 -27 -7 -7 -9 -13 -5 -13 4
0 -2 -17 -13 -37 -10 -21 -20 -42 -21 -48 -1 -5 -6 -19 -10 -31 -9 -24 -13
-50 -11 -79 1 -11 15 14 32 55 17 41 34 79 38 85 4 5 18 36 31 68 16 41 41 76
88 122 41 41 59 65 49 65 -10 0 -17 -4 -17 -10z"/>
<path d="M2117 1605 c-3 -49 -11 -91 -17 -93 -13 -5 -3 -22 13 -22 17 0 42
136 29 153 -5 7 -12 21 -14 32 -2 11 -7 -20 -11 -70z"/>
<path d="M831 1652 c-1 -7 6 -29 14 -48 15 -36 14 -36 -25 -82 -50 -59 -202
-200 -242 -225 -37 -22 -33 -28 16 -20 21 3 32 9 26 13 -7 4 1 12 20 20 17 7
35 21 41 32 5 10 14 16 20 13 5 -4 8 -2 7 3 -3 10 81 92 95 92 4 0 6 3 4 8 -6
9 19 33 27 25 3 -3 8 2 12 11 3 9 10 16 16 16 5 0 6 -4 3 -10 -3 -5 1 -10 9
-10 18 0 29 -32 29 -80 0 -19 2 -39 6 -45 3 -5 6 -21 6 -35 0 -27 19 -87 40
-127 17 -33 12 -59 -10 -55 -11 2 -14 -1 -10 -8 4 -7 1 -10 -10 -8 -10 2 -24
-8 -34 -22 -15 -23 -15 -24 2 -17 10 4 24 7 31 7 7 0 22 9 33 20 16 14 24 16
31 7 21 -27 22 -50 2 -77 -17 -24 -25 -27 -58 -23 -24 3 -86 -7 -177 -30 -77
-20 -173 -44 -212 -54 -40 -9 -73 -21 -73 -26 0 -5 7 -7 15 -3 30 11 16 -32
-16 -48 -26 -13 -33 -13 -45 -2 -10 10 -11 15 -2 18 6 2 9 9 5 15 -7 12 -157
-34 -157 -48 0 -4 16 -1 35 7 46 19 92 18 103 -2 11 -20 93 -25 100 -6 2 7 7
10 11 8 4 -3 5 8 3 24 -4 25 0 31 24 41 16 6 45 12 64 14 19 2 55 6 80 10 25
4 56 8 70 9 14 2 35 8 47 14 12 7 37 14 55 16 18 3 34 6 36 7 1 1 6 2 11 3 5
0 13 4 17 9 15 15 24 6 20 -19 -3 -15 -8 -29 -12 -33 -4 -3 -4 3 -1 14 5 14 0
11 -18 -10 -36 -44 -58 -95 -60 -140 -1 -22 -3 -69 -5 -105 -2 -49 -4 -57 -9
-35 -4 20 -9 26 -14 18 -9 -14 -3 -69 13 -124 12 -42 12 -60 0 -79 -9 -13 -11
-13 -20 0 -8 12 -10 12 -9 -5 0 -11 4 -29 8 -40 5 -11 4 -28 -1 -39 -7 -13 -7
-16 1 -12 10 6 15 -6 12 -26 0 -5 3 -8 8 -8 12 0 22 43 12 50 -12 7 -8 63 4
67 15 5 42 -59 35 -86 -3 -12 -10 -21 -15 -20 -17 4 -17 -25 0 -46 16 -19 16
-19 5 3 -9 19 -8 22 8 22 21 0 44 -29 57 -70 4 -14 15 -32 24 -40 22 -21 43
-60 32 -60 -5 0 -23 17 -41 38 -17 20 -26 27 -20 15 7 -16 7 -23 0 -23 -5 0
-10 5 -10 12 0 9 -3 9 -11 1 -8 -8 -20 -8 -35 -3 -13 5 -23 6 -22 2 1 -4 -4
-20 -10 -35 -21 -50 -10 -63 21 -27 9 11 12 20 7 20 -6 0 -10 4 -10 9 0 5 18
9 39 9 29 1 38 -3 35 -12 -3 -8 2 -16 10 -19 9 -4 16 -11 16 -17 0 -7 -6 -7
-21 1 -19 10 -20 8 -14 -10 3 -12 0 -34 -8 -51 l-15 -29 24 16 c13 8 24 19 24
24 0 20 2 25 16 40 13 14 13 18 -1 29 -8 7 -15 17 -15 23 0 6 11 0 25 -13 14
-13 25 -19 25 -15 0 5 8 -2 17 -15 21 -31 65 -66 76 -62 7 2 61 -20 119 -49 9
-5 43 -13 75 -18 32 -5 65 -12 74 -16 10 -3 20 -2 24 4 3 6 15 11 25 11 10 0
20 5 22 12 5 13 38 4 38 -11 0 -5 -8 -12 -17 -14 -10 -3 1 -5 23 -6 35 -1 43
2 47 22 6 21 5 21 -8 3 -7 -10 -19 -15 -24 -11 -16 9 -5 22 37 46 20 11 30 18
21 15 -12 -3 -15 0 -12 14 3 10 15 21 27 24 21 5 43 21 91 66 25 23 45 48 45
54 0 3 16 31 36 62 24 38 39 52 44 44 10 -16 19 -2 42 62 16 46 16 47 -2 38
-16 -9 -17 -6 -10 25 4 19 5 35 1 35 -3 0 -24 -33 -45 -73 -110 -204 -136
-237 -215 -268 -31 -12 -70 -33 -88 -45 -17 -13 -55 -33 -85 -44 -47 -17 -62
-19 -109 -10 -100 19 -191 76 -251 157 -56 76 -178 388 -159 409 3 4 -3 4 -14
1 -19 -7 -19 -7 -1 8 14 11 17 22 13 45 -11 55 11 131 63 217 28 44 56 98 64
119 7 21 17 39 22 41 11 3 70 -93 79 -130 4 -15 11 -27 17 -27 5 0 7 -4 4 -9
-3 -5 1 -11 9 -15 8 -3 15 -12 15 -20 0 -32 119 -134 167 -142 52 -9 137 -26
150 -31 8 -3 13 3 13 14 0 20 -35 47 -50 38 -4 -3 -14 0 -22 7 -14 14 -80 20
-72 7 8 -13 -25 1 -77 33 -58 35 -93 80 -141 179 -20 43 -45 82 -55 88 -10 6
-14 11 -10 11 8 0 -26 71 -49 100 -25 33 -53 132 -64 229 -10 85 -16 106 -36
126 -13 13 -24 34 -24 47 -1 25 -38 111 -39 90z"/>
<path d="M912 1573 c-2 -28 0 -34 8 -23 12 18 13 60 2 60 -4 0 -9 -17 -10 -37z"/>
<path d="M2183 1568 c-22 -25 -47 -68 -41 -72 2 -2 18 19 36 45 35 53 37 61 5
27z"/>
<path d="M1340 1543 c-42 -28 -60 -45 -54 -54 2 -5 16 2 30 14 14 12 34 24 45
27 11 3 20 9 20 15 1 16 -14 15 -41 -2z"/>
<path d="M1643 1515 c-3 -9 -1 -21 6 -28 8 -8 11 -8 11 1 0 23 29 12 54 -20
29 -37 36 -26 9 12 -10 14 -17 26 -15 28 9 10 -3 18 -28 20 -20 2 -33 -3 -37
-13z"/>
<path d="M2090 1437 c-6 -23 -15 -53 -21 -65 -5 -13 -12 -40 -15 -60 -3 -19
-12 -46 -21 -58 -8 -13 -13 -24 -12 -26 7 -8 -48 -88 -61 -89 -10 0 -11 -2 -2
-6 8 -3 3 -17 -18 -43 -19 -24 -36 -37 -45 -33 -14 5 -19 -6 -16 -34 1 -7 -5
-13 -14 -13 -8 0 -14 -6 -13 -12 2 -7 -3 -12 -11 -10 -8 2 -11 -3 -8 -13 4 -9
1 -15 -8 -15 -8 0 -15 -5 -15 -11 0 -6 -6 -17 -12 -24 -7 -8 -24 -29 -38 -47
-41 -53 -124 -128 -141 -128 -9 0 -33 -7 -52 -15 -20 -8 -48 -15 -62 -15 -15
0 -25 -6 -25 -14 0 -26 19 -28 78 -10 31 10 60 17 65 16 4 -1 7 3 7 9 0 5 4 8
9 5 12 -8 122 103 151 153 22 39 91 124 75 93 -4 -8 14 -21 54 -38 34 -15 61
-30 61 -35 0 -4 11 -21 25 -37 24 -29 65 -49 65 -31 0 5 -7 9 -15 9 -8 0 -15
4 -15 9 0 5 -9 11 -20 14 -11 3 -20 10 -20 16 0 15 18 14 35 -1 8 -7 21 -18
29 -25 8 -7 16 -16 17 -20 2 -5 60 -41 129 -82 69 -40 136 -81 150 -91 14 -9
62 -36 107 -59 66 -34 88 -52 112 -89 17 -26 49 -60 72 -77 44 -32 102 -107
107 -140 1 -11 14 -31 28 -46 23 -24 61 -119 47 -119 -3 0 -1 -6 4 -12 6 -7
18 -37 28 -65 18 -50 21 -53 53 -53 21 0 31 4 27 11 -4 5 -12 8 -18 6 -7 -2
-28 40 -51 102 -21 58 -46 117 -56 131 -9 14 -30 54 -47 90 -48 105 -152 201
-318 293 -162 90 -322 188 -390 238 -63 47 -94 64 -162 90 -20 7 -20 9 17 47
49 53 155 262 165 326 4 28 17 71 29 96 21 43 21 46 4 47 -13 1 -20 -10 -28
-40z"/>
<path d="M1290 1428 c0 -23 69 -65 80 -48 10 16 42 5 81 -28 24 -20 41 -26 73
-24 23 1 72 1 109 1 59 1 71 4 87 23 11 13 19 37 19 53 -1 21 -3 24 -6 10 -10
-39 -24 -46 -87 -44 -34 2 -71 -2 -83 -9 -33 -18 -69 -14 -100 11 -17 14 -54
29 -93 36 -36 7 -68 18 -72 24 -5 8 -8 6 -8 -5z"/>
<path d="M1170 1388 c-11 -12 -20 -27 -20 -32 0 -6 4 -4 10 4 5 8 12 11 16 8
8 -8 34 16 34 31 0 18 -18 13 -40 -11z"/>
<path d="M1170 1269 c0 -5 -4 -8 -9 -5 -15 10 -21 -24 -8 -44 6 -11 20 -20 29
-20 10 0 28 -11 40 -25 12 -14 26 -25 32 -25 6 0 3 5 -6 11 -10 5 -18 14 -18
20 0 14 50 0 83 -23 27 -19 27 -19 27 1 0 16 6 21 25 21 14 0 25 -5 25 -12 0
-9 3 -9 11 -1 7 7 24 8 47 3 31 -7 124 -18 170 -19 6 -1 12 -10 12 -21 0 -11
5 -20 11 -20 6 0 8 9 4 21 -5 14 -3 20 5 17 6 -2 12 -8 12 -13 0 -6 9 -16 19
-22 35 -25 145 43 124 77 -3 5 -19 8 -35 8 -24 -1 -28 -4 -19 -15 10 -11 8
-12 -7 -6 -17 6 -17 5 -5 -10 12 -15 11 -17 -8 -17 -12 0 -36 8 -54 17 -35 19
-187 34 -359 38 -60 1 -111 4 -114 8 -4 3 -3 14 1 24 13 29 14 43 4 43 -5 0
-9 -4 -9 -10 0 -5 -5 -10 -11 -10 -5 0 -7 5 -4 10 3 6 1 10 -4 10 -6 0 -11 -5
-11 -11z"/>
<path d="M820 1141 c-8 -6 -18 -7 -24 -4 -5 3 -6 1 -2 -5 4 -7 -3 -14 -19 -18
-14 -3 -25 -12 -25 -20 0 -13 -12 -18 -33 -15 -4 1 -10 -6 -13 -14 -3 -8 -10
-12 -15 -9 -5 3 -9 -2 -9 -10 0 -9 -4 -16 -10 -16 -5 0 -10 -4 -10 -10 0 -19
29 -10 62 18 18 16 54 43 81 61 26 17 47 36 47 41 0 12 -11 12 -30 1z"/>
<path d="M544 1095 c-4 -8 -9 -13 -13 -11 -3 2 -14 -7 -24 -20 -10 -13 -14
-24 -10 -24 14 0 72 70 58 70 -3 0 -8 -7 -11 -15z"/>
<path d="M618 1065 c-7 -9 -19 -22 -26 -30 -7 -8 -9 -15 -4 -15 5 0 21 14 35
30 15 17 23 30 17 30 -5 0 -15 -7 -22 -15z"/>
<path d="M1635 1019 c-43 -27 -54 -30 -77 -21 -17 6 -30 7 -34 1 -3 -5 -12 -5
-22 0 -28 14 -103 20 -128 11 -14 -6 -26 -6 -29 0 -3 4 3 11 12 13 11 3 8 5
-9 6 -16 0 -28 -4 -28 -10 0 -5 -4 -7 -10 -4 -5 3 -7 0 -4 -9 4 -10 26 -18 65
-22 44 -5 59 -11 59 -22 0 -13 2 -13 13 2 10 14 18 15 40 7 41 -16 116 -2 165
31 23 16 42 33 42 38 0 14 0 14 -55 -21z"/>
<path d="M203 826 c-51 -26 -65 -39 -38 -34 11 1 29 11 39 21 11 9 25 17 32
17 7 0 16 5 19 10 9 15 -5 11 -52 -14z"/>
<path d="M73 758 c-29 -16 -53 -35 -53 -41 0 -8 3 -7 9 1 4 8 12 14 17 14 13
1 38 11 49 20 6 5 19 15 30 23 35 25 2 15 -52 -17z"/>
<path d="M445 760 c2 -4 -8 -10 -24 -13 -33 -7 -48 -35 -28 -54 11 -11 16 -10
32 7 19 21 19 21 -8 11 -15 -6 -27 -8 -27 -5 0 8 24 29 35 31 6 1 21 6 34 11
24 9 24 9 3 14 -12 4 -20 3 -17 -2z"/>
<path d="M479 738 c-23 -20 -53 -58 -45 -58 4 0 22 16 42 35 33 33 35 50 3 23z"/>
<path d="M2035 686 c-16 -12 -18 -19 -10 -41 6 -15 19 -34 31 -41 17 -12 23
-12 40 0 10 8 16 18 12 22 -4 4 -14 1 -23 -6 -12 -10 -15 -10 -15 3 0 11 -5
14 -17 10 -16 -6 -16 -5 -4 10 9 12 10 17 2 17 -7 0 -9 5 -6 10 9 15 36 8 58
-13 10 -10 22 -15 25 -11 4 3 1 9 -5 11 -7 3 -13 11 -13 18 0 26 -46 32 -75
11z"/>
<path d="M2792 632 c8 -9 7 -11 -5 -6 -16 6 -87 -22 -98 -39 -4 -5 -12 -6 -18
-3 -6 4 -11 2 -11 -5 0 -7 -8 -5 -20 6 -11 10 -20 14 -20 9 0 -5 9 -15 20 -22
11 -7 17 -18 14 -27 -9 -22 12 -19 28 4 8 11 26 25 41 32 15 7 27 15 27 19 0
4 10 6 22 5 35 -3 87 16 82 30 -3 6 -20 11 -38 11 -27 -1 -32 -4 -24 -14z"/>
<path d="M2969 643 c-10 -2 -19 -12 -22 -21 -3 -9 -8 -25 -12 -34 -12 -29 8
-20 37 16 28 35 27 46 -3 39z"/>
<path d="M647 569 c-24 -14 -53 -72 -38 -77 6 -2 11 -10 11 -18 0 -8 7 -14 15
-14 9 0 18 -7 21 -15 6 -14 8 -13 20 2 7 10 13 27 13 38 0 18 0 19 -10 3 -5
-10 -15 -18 -20 -18 -6 0 -7 5 -3 12 5 8 2 9 -9 5 -11 -4 -17 -1 -17 8 0 8 6
15 13 15 8 0 7 3 -3 10 -12 8 -12 10 3 16 10 3 20 4 24 1 3 -4 18 0 34 9 31
15 41 2 12 -15 -17 -10 -17 -10 0 -11 9 0 17 -4 17 -10 0 -5 -7 -10 -15 -10
-8 0 -12 -6 -9 -14 3 -8 -1 -28 -10 -43 -17 -31 -35 -105 -41 -173 -5 -55 9
-26 20 40 4 25 22 77 41 116 31 65 45 133 27 135 -29 3 -50 7 -63 12 -8 4 -23
2 -33 -4z"/>
<path d="M33 487 c-32 -11 -33 -13 -33 -63 0 -40 4 -53 18 -58 9 -3 22 -8 28
-11 15 -8 38 45 24 59 -7 7 -10 5 -10 -7 0 -9 -4 -17 -10 -17 -5 0 -10 5 -10
11 0 8 -5 7 -16 -1 -13 -12 -15 -10 -11 15 3 28 43 62 73 64 14 1 27 -43 15
-47 -5 -2 -6 -12 -4 -23 4 -12 -3 -32 -16 -50 l-22 -29 21 0 c12 0 19 4 15 9
-3 6 2 14 12 19 9 5 18 18 19 28 2 10 5 28 9 41 3 13 1 23 -5 23 -5 0 -10 8
-10 19 0 16 -31 34 -50 29 -3 0 -20 -6 -37 -11z"/>
<path d="M1860 394 c5 -13 6 -24 1 -24 -4 0 -6 -11 -3 -25 3 -16 -2 -33 -12
-44 -10 -11 -13 -22 -8 -25 5 -3 15 6 22 19 7 14 16 25 20 25 3 0 6 21 6 47
-1 35 -5 47 -18 49 -14 2 -15 -2 -8 -22z"/>
<path d="M2352 393 c-52 -25 -41 -78 24 -114 45 -24 46 -24 60 -5 20 28 18 89
-3 108 -29 24 -48 27 -81 11z m62 -25 c10 -11 13 -41 8 -85 -1 -7 -7 -13 -13
-13 -7 0 -9 10 -5 24 6 26 -8 45 -18 24 -5 -10 -7 -10 -12 -1 -3 7 -11 10 -18
7 -9 -4 -13 4 -13 21 0 21 3 26 18 22 11 -3 22 -1 25 4 7 12 13 11 28 -3z"/>
<path d="M2992 378 c-2 -21 -42 -59 -54 -52 -5 3 -7 0 -6 -7 2 -7 -7 -18 -19
-24 -13 -5 -23 -15 -23 -22 0 -7 -6 -12 -12 -11 -7 2 -13 -4 -13 -12 0 -9 8
-14 20 -12 15 2 17 1 6 -6 -7 -6 -12 -15 -9 -22 3 -9 8 -9 20 3 8 9 19 13 23
9 5 -4 5 -1 1 5 -4 8 2 17 16 24 40 18 60 55 55 102 -2 23 -4 34 -5 25z"/>
<path d="M365 250 c3 -5 -5 -15 -19 -22 -21 -9 -26 -18 -26 -45 0 -20 4 -32
10 -28 6 3 10 15 10 25 0 11 13 25 32 34 36 19 41 20 33 6 -3 -5 -1 -10 4 -10
6 0 11 -7 11 -15 0 -8 -3 -15 -7 -15 -5 0 -9 -24 -9 -53 -1 -28 1 -45 4 -37 3
8 10 18 16 22 5 4 11 17 12 30 1 13 5 31 9 41 6 15 10 16 16 5 7 -10 9 -9 9 5
0 10 -8 17 -20 17 -11 0 -20 4 -20 8 0 8 -52 42 -65 42 -3 0 -3 -4 0 -10z"/>
<path d="M374 156 c-4 -9 -13 -15 -20 -12 -21 8 -17 -22 5 -34 17 -8 20 -6 26
21 8 33 -1 52 -11 25z"/>
<path d="M873 143 c-19 -7 -16 -30 4 -37 15 -6 15 -8 3 -16 -13 -8 -12 -10 2
-10 19 0 38 29 38 57 -1 17 -1 17 -14 1 -16 -22 -30 -23 -22 -3 3 8 4 15 3 14
-1 0 -8 -3 -14 -6z"/>
<path d="M2045 118 c-11 -6 -23 -16 -27 -22 -11 -16 -10 -58 2 -51 5 3 15 -5
22 -19 14 -32 54 -35 63 -5 7 22 -5 43 -12 22 -3 -7 -9 -13 -15 -13 -6 0 -7 7
-4 16 5 14 4 15 -9 4 -20 -17 -32 -5 -15 15 9 11 9 15 1 15 -7 0 -9 5 -5 11 3
6 15 9 25 6 10 -3 22 -1 25 4 9 15 27 10 20 -6 -5 -13 5 -19 26 -16 13 1 20
-41 9 -52 -8 -8 -11 -5 -11 11 0 12 -4 22 -8 22 -5 0 -9 -13 -9 -30 0 -40 29
-40 43 -1 25 66 -56 126 -121 89z"/>
<path d="M2594 58 c-17 -34 -18 -61 -1 -55 6 2 12 12 12 22 0 22 54 40 69 25
7 -7 6 -10 -2 -10 -7 0 -3 -9 8 -20 30 -30 50 -26 50 11 0 25 -3 29 -19 24
-13 -4 -23 0 -30 12 -6 11 -21 18 -41 18 -25 0 -35 -6 -46 -27z"/>
<path d="M2738 68 c7 -7 12 -25 12 -40 0 -15 5 -28 10 -28 6 0 10 13 10 28 0
28 -16 52 -34 52 -6 0 -5 -5 2 -12z"/>
<path d="M1568 56 c-23 -17 -24 -56 -2 -56 11 0 15 6 11 19 -2 10 0 26 5 35
11 19 9 20 -14 2z"/>
</g>
</svg>
